# xmcd
#
# Track frame offsets:
#	150
#	9471
#	24478
#	41275
#	58390
#	73594
#	90851
#	108047
#	124229
#	137455
#	151100
#	169422
#	181906
#	201802
#
# Disc length: 2865 seconds
# Revision: 0
# Processed by: cddbd v1.5.2PL0 Copyright (c) Steve Scherf et al.
# Submitted via: dBpowerAMP V12.0
#
DISCID=ac0b2f0e
DTITLE=鄭少秋 - 鄭少秋_娛樂金禧經典_URD-FX_ Disc 1
DYEAR=2002
DGENRE=World Pop
TTITLE0=陸小鳳
TTITLE1=決戰前夕
TTITLE2=倚天屠龍記
TTITLE3=熊熊聖火
TTITLE4=楚留香
TTITLE5=留香恨
TTITLE6=情未了
TTITLE7=輪流轉
TTITLE8=愛在心內暖
TTITLE9=飛鷹
TTITLE10=一劍鎮神州
TTITLE11=遊子恨
TTITLE12=笑看風雲
TTITLE13=做人愛自由
EXTD=
EXTT0=
EXTT1=
EXTT2=
EXTT3=
EXTT4=
EXTT5=
EXTT6=
EXTT7=
EXTT8=
EXTT9=
EXTT10=
EXTT11=
EXTT12=
EXTT13=
PLAYORDER=
